<svg version="1.2" xmlns="http://www.w3.org/2000/svg" viewBox="0 0 786 820" width="786" height="820"><style></style><path fill-rule="evenodd" d="m392.8 0.1c1.2-0.1 57.9 18.8 125.9 42 68.1 23.2 134.8 45.8 148.3 50.4 13.5 4.6 45.2 15.3 70.5 23.9 25.3 8.6 46.5 16.2 47.2 16.9 0.8 0.9-0.3 10.4-4.8 39.2-3.2 20.9-9.7 62.8-14.4 93-4.6 30.3-14.3 93-21.5 139.5-7.2 46.5-15.3 99.1-18.1 117-2.7 17.9-5.1 33.7-5.4 35.3-0.4 2.2-19.5 17.9-104.3 85.6-57 45.6-130.3 104.1-162.7 130-32.5 25.9-59.7 47.1-60.5 47.1-0.8 0-9.8-6.6-20-14.7-10.2-8.2-83.4-66.7-162.8-130-118.1-94.4-144.3-115.8-144.7-118-0.3-1.6-1.6-10-2.9-18.8-1.3-8.8-7-45.2-12.5-81-5.5-35.7-15-97.2-21.1-136.5-6-39.3-15-97.4-19.9-129-6.8-43.6-8.6-57.8-7.8-58.7 0.7-0.7 88.5-30.9 195.2-67.2 106.7-36.3 195-66 196.2-66zm-329.5 171.4c-0.2 1.1 10.3 82.8 23.3 181.5 21.8 165.5 23.9 179.7 25.8 181.7 1.2 1.1 44.5 34.2 96.2 73.4 51.7 39.1 113.9 86.3 138.3 104.8 24.4 18.5 44.9 33.7 45.7 33.9 0.8 0.1 39.6-28.7 86.2-64 46.7-35.3 109.1-82.6 138.8-105.1 29.7-22.5 55-41.9 56.1-43.1 2-1.9 4.1-16.4 25.9-181.6 13-98.7 23.5-180.4 23.3-181.4-0.2-1.3-2.5-2.7-7.8-4.7-4.1-1.6-60.4-22.2-125-45.9-64.6-23.7-135.2-49.6-156.8-57.6-21.5-7.9-39.8-14.4-40.5-14.4-0.6 0.1-75 27.2-165.2 60.3-136.9 50.3-164 60.6-164.3 62.2zm336.8-61.8c7.4 0.3 17.3 0.9 22 1.4 4.7 0.4 14.3 2 21.5 3.4 7.1 1.4 20.6 5.1 30 8.2 9.3 3.1 20.6 7.3 25 9.3 4.4 2 13.8 7 21 11 7.1 4.1 16.4 9.7 20.5 12.6 4.1 2.9 12.9 9.9 19.5 15.6 6.6 5.6 15.1 13.6 19 17.7 3.8 4 11.2 12.5 16.3 19 5.1 6.4 12.2 16.3 15.6 22.1 3.5 5.8 8.4 14.3 10.9 19 2.5 4.7 7 14.8 10 22.5 3 7.7 6.9 18.7 8.6 24.5 1.7 5.8 4.2 17 5.5 25 1.4 8 3 20.6 3.6 28 0.8 9.8 0.8 18.2 0 30.5-0.5 9.4-1.5 20.1-2.1 24-0.5 3.9-1.9 11-3 16-1.1 5-3.2 13-4.5 18-1.4 5-4.1 13.3-6.1 18.5-2 5.2-6 14.5-8.8 20.5-2.8 6-8 15.7-11.4 21.5-3.5 5.8-10.2 15.7-14.9 22-5 6.8-15 17.9-24.1 27.1-8.6 8.5-19.9 18.7-25.1 22.5-5.2 3.9-12.9 9.3-17 12-4.1 2.8-10.9 6.9-15 9.1-4.1 2.3-12.5 6.4-18.5 9.1-6.1 2.8-16.4 6.9-23 9.1-6.6 2.3-19 5.7-27.5 7.6-8.5 1.8-17.8 3.6-20.5 3.9-2.8 0.3-11.5 1.1-19.5 1.6-10.2 0.8-19.4 0.7-31 0-9.1-0.6-21.5-2-27.5-3.1-6.1-1.1-14.6-2.9-19-4-4.4-1.1-12.1-3.3-17-4.8-5-1.6-14.9-5.4-22-8.6-7.2-3.1-16.8-7.8-21.5-10.3-4.7-2.5-13.5-7.9-19.5-12-6.1-4.1-14.8-10.5-19.5-14.2-4.7-3.8-14.4-12.8-21.5-20.2-7.2-7.3-17-18.5-21.7-24.8-4.7-6.3-10.3-14.4-12.5-18-2.2-3.6-6.5-11.2-9.6-17-3.1-5.8-8-16.6-11-24-2.9-7.4-7.2-20.5-9.5-29-2.3-8.5-4.8-19.8-5.6-25-0.8-5.2-2-17.6-2.6-27.5-0.8-13.3-0.8-21.4 0-31 0.6-7.1 2.2-19.5 3.6-27.5 1.3-8 3.4-17.9 4.5-22 1.2-4.1 4.2-13.1 6.6-20 2.5-6.9 6.7-17 9.3-22.5 2.6-5.5 8.2-15.9 12.4-23 4.3-7.1 10.1-15.9 12.9-19.5 2.8-3.6 9.1-11.4 14.1-17.4 6-7.2 14.1-15.3 23.6-23.4 8-6.8 17.9-14.7 22-17.6 4.1-2.9 13.3-8.6 20.5-12.6 7.1-4 16.6-9 21-11 4.4-2 15.6-6.2 25-9.3 9.3-3.1 22.8-6.8 30-8.2 7.1-1.4 17.3-3 22.5-3.5 5.2-0.6 12.2-1.2 15.5-1.4 3.3-0.2 12.1-0.1 19.5 0.1z"/></svg>