<svg version="1.2" xmlns="http://www.w3.org/2000/svg" viewBox="0 0 751 751" width="751" height="751"><style></style><path  d="m12.5 148.7c-1.7 0.9-4.3 2.7-5.8 4.2-1.6 1.4-3.6 4-4.5 5.6-1.1 2-1.6 5.6-1.7 11.1 0 7.3 0.3 8.5 3 12.9 2 3.2 4.5 5.6 7.5 7.2l4.5 2.3h192c62.3 202.7 80.7 263.8 81 266.5 0.3 2.9 1.7 6.9 3.3 9.4 1.7 2.9 4.3 5.3 7.2 6.8l4.5 2.3c329.2 0 348.9-0.2 352.3-1.5 2-0.9 5.7-3.5 8-5.8 2.4-2.3 5.6-6.7 7.2-9.7 1.5-3 19.9-43.7 40.8-90.5 34.4-76.6 38.2-85.5 38.2-90.2 0-2.9-0.6-6.8-1.3-8.5-0.8-1.8-3.2-4.9-5.4-6.8-2.2-1.9-6.3-4.3-8.9-5.3-2.7-0.9-6.7-1.7-8.9-1.7-2.2 0-5.8 0.9-8 1.8-2.2 1-5.2 3.4-6.7 5.3-1.5 1.9-19.2 40.4-39.5 85.6l-36.8 82.3-305.9-0.5c-62.9-203.8-81.7-264.9-82.4-267.3-0.6-2.3-2.9-6.1-5-8.3-2-2.3-5.8-5.2-8.5-6.5l-4.7-2.4c-199.2 0.2-212.9 0.4-215.5 1.7zm370.5 347.8c-3 0.8-7.5 2.3-10 3.4-2.5 1.1-5.9 3-7.5 4.1-1.7 1.1-5.6 4.6-8.8 7.7-3.2 3.2-7.3 8.7-9.2 12.3-1.8 3.6-4.1 9.4-4.9 13-0.9 3.6-1.6 9.2-1.6 12.5 0 3.3 0.7 8.9 1.6 12.5 0.8 3.6 3.1 9.4 4.9 13 2 3.7 6.2 9.2 9.7 12.8 3.5 3.4 8.8 7.5 11.8 9.2 3 1.6 8.2 3.8 11.5 4.9 4.3 1.5 8.6 2.1 15 2.1 6.4 0 10.7-0.6 15-2.1 3.3-1.1 8.5-3.3 11.5-4.9 3-1.7 8.3-5.8 11.8-9.2 3.5-3.6 7.7-9.1 9.7-12.8 1.8-3.6 4.1-9.4 4.9-13 0.9-3.6 1.6-9.2 1.6-12.5 0-3.3-0.7-8.9-1.6-12.5-0.8-3.6-3.1-9.4-4.9-13-2-3.7-6.2-9.2-9.7-12.8-3.5-3.5-9.2-7.8-12.8-9.7-3.6-1.8-9.4-4.1-13-4.9-3.6-0.9-9.4-1.5-13-1.5-3.6 0-9 0.7-12 1.4zm176 0c-3 0.8-7.5 2.3-10 3.4-2.5 1.1-5.9 3-7.5 4.1-1.7 1.1-5.6 4.6-8.8 7.7-3.2 3.2-7.3 8.7-9.2 12.3-1.8 3.6-4.1 9.4-4.9 13-0.9 3.6-1.6 9.2-1.6 12.5 0 3.3 0.7 8.9 1.6 12.5 0.8 3.6 3.1 9.4 4.9 13 2 3.7 6.2 9.2 9.7 12.8 3.5 3.4 8.8 7.5 11.8 9.2 3 1.6 8.2 3.8 11.5 4.9 4.3 1.5 8.6 2.1 15 2.1 6.4 0 10.7-0.6 15-2.1 3.3-1.1 8.5-3.3 11.5-4.9 3-1.7 8.3-5.8 11.8-9.2 3.5-3.6 7.7-9.1 9.7-12.8 1.8-3.6 4.1-9.4 4.9-13 0.9-3.6 1.6-9.2 1.6-12.5 0-3.3-0.7-8.9-1.6-12.5-0.8-3.6-3.1-9.4-4.9-13-2-3.7-6.2-9.2-9.7-12.8-3.5-3.5-9.2-7.8-12.8-9.7-3.6-1.8-9.4-4.1-13-4.9-3.6-0.9-9.4-1.5-13-1.5-3.6 0-9 0.7-12 1.4z"/></svg>