{
	"asset":{
		"generator":"Khronos glTF Blender I/O v3.6.28",
		"version":"2.0"
	},
	"extensionsUsed":[
		"KHR_materials_specular",
		"KHR_materials_ior"
	],
	"scene":0,
	"scenes":[
		{
			"name":"Scene",
			"nodes":[
				0
			]
		}
	],
	"nodes":[
		{
			"mesh":0,
			"name":"Roundcube"
		}
	],
	"materials":[
		{
			"doubleSided":true,
			"extensions":{
				"KHR_materials_specular":{
					"specularColorFactor":[
						2.371357614441398,
						2.371357614441398,
						2.371357614441398
					]
				},
				"KHR_materials_ior":{
					"ior":1.4500000476837158
				}
			},
			"name":"Material.001",
			"pbrMetallicRoughness":{}
		}
	],
	"meshes":[
		{
			"name":"Roundcube",
			"primitives":[
				{
					"attributes":{
						"POSITION":0,
						"NORMAL":1,
						"TEXCOORD_0":2
					},
					"indices":3,
					"material":0
				}
			]
		}
	],
	"accessors":[
		{
			"bufferView":0,
			"componentType":5126,
			"count":6434,
			"max":[
				1,
				1,
				1
			],
			"min":[
				-1,
				-1,
				-1
			],
			"type":"VEC3"
		},
		{
			"bufferView":1,
			"componentType":5126,
			"count":6434,
			"type":"VEC3"
		},
		{
			"bufferView":2,
			"componentType":5126,
			"count":6434,
			"type":"VEC2"
		},
		{
			"bufferView":3,
			"componentType":5123,
			"count":38304,
			"type":"SCALAR"
		}
	],
	"bufferViews":[
		{
			"buffer":0,
			"byteLength":77208,
			"byteOffset":0,
			"target":34962
		},
		{
			"buffer":0,
			"byteLength":77208,
			"byteOffset":77208,
			"target":34962
		},
		{
			"buffer":0,
			"byteLength":51472,
			"byteOffset":154416,
			"target":34962
		},
		{
			"buffer":0,
			"byteLength":76608,
			"byteOffset":205888,
			"target":34963
		}
	],
	"buffers":[
		{
			"byteLength":282496,
			"uri":"data:application/octet-stream;base64,"
		}
	]
}
